<svg width="26" height="26" viewBox="0 0 26 26" fill="none" xmlns="http://www.w3.org/2000/svg">
<g clip-path="url(#clip0)">
<path d="M15.255 1.49903C15.544 1.37803 15.88 1.44603 16.103 1.66703L25.412 8.98003C25.716 9.28203 25.716 9.77704 25.412 10.08L16.103 17.358C15.955 17.508 15.755 17.587 15.554 17.587C15.452 17.587 15.351 17.566 15.255 17.528C14.964 17.407 14.79 17.124 14.79 16.809V12.45C4.83501 12.45 0.481014 15.258 1.14401 24.201C-3.07299 9.89303 5.02101 6.65903 14.79 6.65903V2.21703C14.791 1.90203 14.964 1.61903 15.255 1.49903Z" fill="#595959"/>
</g>
<defs>
<clipPath id="clip0">
<rect width="25.64" height="25.64" fill="white" transform="matrix(-1 0 0 1 25.64 0)"/>
</clipPath>
</defs>
</svg>
