<svg width="26" height="26" viewBox="0 0 26 26" fill="none" xmlns="http://www.w3.org/2000/svg">
<g clip-path="url(#clip0)">
<path d="M10.385 1.49903C10.096 1.37803 9.76 1.44603 9.537 1.66703L0.228 8.98003C-0.076 9.28203 -0.076 9.77704 0.228 10.08L9.537 17.358C9.685 17.508 9.885 17.587 10.086 17.587C10.188 17.587 10.289 17.566 10.385 17.528C10.676 17.407 10.85 17.124 10.85 16.809V12.45C20.805 12.45 25.159 15.258 24.496 24.201C28.713 9.89303 20.619 6.65903 10.85 6.65903V2.21703C10.849 1.90203 10.676 1.61903 10.385 1.49903Z" fill="#595959"/>
</g>
<defs>
<clipPath id="clip0">
<rect width="25.64" height="25.64" fill="white"/>
</clipPath>
</defs>
</svg>
